<?xml version="1.0" encoding="iso-8859-1"?>
<!-- Generator: Adobe Illustrator 19.0.0, SVG Export Plug-In . SVG Version: 6.00 Build 0)  -->
<svg version="1.1" id="Layer_1" xmlns="http://www.w3.org/2000/svg" xmlns:xlink="http://www.w3.org/1999/xlink" x="0px" y="0px"
	 viewBox="0 0 512 512" style="enable-background:new 0 0 512 512;" xml:space="preserve">
<g>
	<g>
		<path d="M334.938,102.697c-30.917-24.154-57.604-45.007-57.604-91.999C277.333,4.785,272.563,0,266.667,0
			C260.771,0,256,4.785,256,10.698v351.53c0,11.805-9.563,21.396-21.333,21.396H192c-47.063,0-85.333,28.793-85.333,64.188
			C106.667,483.207,144.937,512,192,512s85.333-28.793,85.333-64.188V77.853c12.349,16.53,28.538,29.241,44.5,41.706
			C353.792,144.548,384,168.138,384,223.154c0,5.913,4.771,10.698,10.667,10.698s10.667-4.785,10.667-10.698
			C405.333,157.691,367.938,128.46,334.938,102.697z M256,447.812c0,23.193-29.313,42.792-64,42.792s-64-19.599-64-42.792
			s29.313-42.792,64-42.792h42.667c7.771,0,15.063-2.089,21.333-5.746V447.812z"/>
	</g>
</g>
<g>
</g>
<g>
</g>
<g>
</g>
<g>
</g>
<g>
</g>
<g>
</g>
<g>
</g>
<g>
</g>
<g>
</g>
<g>
</g>
<g>
</g>
<g>
</g>
<g>
</g>
<g>
</g>
<g>
</g>
</svg>
