<svg xmlns="http://www.w3.org/2000/svg" viewBox="0 0 414 384.005">
  <g transform="translate(-855 -409)">
    <g transform="translate(855 366.336)">
  
          <path id="Trazado_1" data-name="Trazado 1" d="M206.885,43.544a10.623,10.623,0,0,0-11.542,2.042L85.49,149.336H10.667A10.661,10.661,0,0,0,0,160V309.335A10.661,10.661,0,0,0,10.667,320H85.49l109.854,103.75a10.631,10.631,0,0,0,7.323,2.917,10.487,10.487,0,0,0,4.219-.875A10.644,10.644,0,0,0,213.334,416V53.336A10.647,10.647,0,0,0,206.885,43.544ZM192,391.252,97.052,301.585a10.653,10.653,0,0,0-7.323-2.917h-68.4v-128h68.4a10.653,10.653,0,0,0,7.323-2.917L192,78.086Z"/>
    
    </g>
    <g transform="translate(-159 481.996)">
     
        <g transform="translate(916 -158)">
          <path d="M458.217,276.92l49.389-49.389A15,15,0,0,0,486.4,206.32l-49.39,49.39-49.39-49.39A15,15,0,1,0,366.4,227.531l49.389,49.389L366.4,326.309a15,15,0,0,0,21.211,21.211l49.39-49.39,49.39,49.39a15,15,0,0,0,21.211-21.211Z"/>
        </g>
      
    </g>
  </g>
</svg>
